HIERARCHY
ROOT root
{
	OFFSET	0	13.1	24.9
	CHANNELS 6  Xposition Yposition Zposition Xrotation Yrotation Zrotation
	JOINT spine_1
	{
		OFFSET	0	9.99999	0
		CHANNELS 3  Xrotation Yrotation Zrotation
		JOINT spine_2
		{
			OFFSET	0	112	-10
			CHANNELS 3  Xrotation Yrotation Zrotation
			JOINT spine_3
			{
				OFFSET	0	206.5	19.3
				CHANNELS 3  Xrotation Yrotation Zrotation
				JOINT spine_4
				{
					OFFSET	0	110.4	14.6
					CHANNELS 3  Xrotation Yrotation Zrotation
					JOINT neck_1
					{
						OFFSET	0	71.8	-50.3
						CHANNELS 3  Xrotation Yrotation Zrotation
						JOINT neck_2
						{
							OFFSET	0	86.2	-25.8
							CHANNELS 3  Xrotation Yrotation Zrotation
							JOINT head_ee
							{
								OFFSET	0	179.8	-8.7
								CHANNELS 3  Xrotation Yrotation Zrotation
								End Site
								{
									OFFSET	1	0	0
								}
							}
						}
					}
					JOINT left_clavicle
					{
						OFFSET	-43.2	22.4	-70.8
						CHANNELS 3  Xrotation Yrotation Zrotation
						JOINT left_shoulder
						{
							OFFSET	-93.9	-5.79999	48.7
							CHANNELS 3  Xrotation Yrotation Zrotation
							JOINT left_elbow
							{
								OFFSET	-291.4	-30.8	15.2
								CHANNELS 3  Xrotation Yrotation Zrotation
								JOINT left_lowarm_twist
								{
									OFFSET	-110.7	-3.89999	13.6
									CHANNELS 3  Xrotation Yrotation Zrotation
									JOINT left_hand
									{
										OFFSET	-110.7	-3.89999	13.6
										CHANNELS 3  Xrotation Yrotation Zrotation
										JOINT left_ee
										{
											OFFSET	-80.8	-5.10001	12.1
											CHANNELS 3  Xrotation Yrotation Zrotation
											End Site
											{
												OFFSET	1	0	0
											}
										}
									}
								}
							}
						}
					}
					JOINT right_clavicle
					{
						OFFSET	43.2	22.4	-70.8
						CHANNELS 3  Xrotation Yrotation Zrotation
						JOINT right_shoulder
						{
							OFFSET	93.9	-5.79999	48.7
							CHANNELS 3  Xrotation Yrotation Zrotation
							JOINT right_elbow
							{
								OFFSET	291.4	-30.8	15.2
								CHANNELS 3  Xrotation Yrotation Zrotation
								JOINT right_lowarm_twist
								{
									OFFSET	110.7	-3.89999	13.6
									CHANNELS 3  Xrotation Yrotation Zrotation
									JOINT right_hand
									{
										OFFSET	110.7	-3.89999	13.6
										CHANNELS 3  Xrotation Yrotation Zrotation
										JOINT right_ee
										{
											OFFSET	80.8	-5.10001	12.1
											CHANNELS 3  Xrotation Yrotation Zrotation
											End Site
											{
												OFFSET	1	0	0
											}
										}
									}
								}
							}
						}
					}
				}
			}
		}
	}
	JOINT left_hip
	{
		OFFSET	-82.8	-127.5	0.300001
		CHANNELS 3  Xrotation Yrotation Zrotation
		JOINT left_knee
		{
			OFFSET	-28.2	-396.7	2.2
			CHANNELS 3  Xrotation Yrotation Zrotation
			JOINT left_ankle
			{
				OFFSET	-11.7	-411.3	35.4
				CHANNELS 3  Xrotation Yrotation Zrotation
				JOINT left_toes
				{
					OFFSET	0	-60	-88.6
					CHANNELS 3  Xrotation Yrotation Zrotation
					JOINT left_foot_ee
					{
						OFFSET	-22.5	-16.5	-42.2
						CHANNELS 3  Xrotation Yrotation Zrotation
						End Site
						{
							OFFSET	1	0	0
						}
					}
				}
			}
		}
	}
	JOINT right_hip
	{
		OFFSET	82.8	-127.5	0.300001
		CHANNELS 3  Xrotation Yrotation Zrotation
		JOINT right_knee
		{
			OFFSET	28.2	-396.7	2.2
			CHANNELS 3  Xrotation Yrotation Zrotation
			JOINT right_ankle
			{
				OFFSET	11.7	-411.3	35.4
				CHANNELS 3  Xrotation Yrotation Zrotation
				JOINT right_toes
				{
					OFFSET	0	-60	-88.6
					CHANNELS 3  Xrotation Yrotation Zrotation
					JOINT right_foot_ee
					{
						OFFSET	22.5	-16.5	-42.2
						CHANNELS 3  Xrotation Yrotation Zrotation
						End Site
						{
							OFFSET	1	0	0
						}
					}
				}
			}
		}
	}
}
MOTION
Frames: 10
Frame Time: 0.02
1692.62 750.03 -1192.97 18.3407 55.7552 -14.3203 -3.61705 -0.0379649 -0.689629 -3.61679 0.00599382 -0.690647 -3.61651 0.193238 -0.663091 -3.61712 0.0860924 -0.685287 -2.78481 11.3457 -1.59238 -2.54072 21.8493 -0.0783715 -0.0 0.0 -0.0 8.38169 -4.82014 16.4056 -28.7644 -6.60055 64.9126 0.685204 -18.7488 0.113122 10.1735 0.24584 -1.27461 -0.288563 5.59368 0.446968 -0.0 0.0 -0.0 7.52402 14.2313 -14.3081 8.82457 33.3738 -58.0254 1.22835 31.3188 -0.344346 18.1876 -0.278371 2.29689 -0.929944 -3.67628 4.60143 0.0 0.0 0.0 12.033 -13.5657 -1.01789 -46.1231 -0.90153 6.83325 40.1624 3.35326 -4.87369 17.1914 -0.0 -0.0 -0.0 0.0 -0.0 -8.54798 20.6237 -6.43847 -1.13607 -0.0451086 -0.168507 17.5362 -22.0365 2.50247 31.7639 -0.0 -0.0 0.0 0.0 0.0 
1665.08 750.513 -1206.04 20.0012 55.283 -14.6987 -3.80756 -0.0775924 -0.897534 -3.80711 -0.0203251 -0.900652 -3.80616 0.227802 -0.871606 -3.80721 0.087295 -0.896642 -2.97469 10.5901 -1.91151 -2.75673 20.7396 -0.482337 -0.0 0.0 -0.0 8.37057 -3.38186 16.3797 -30.1447 -5.54106 65.9508 0.607239 -16.7418 0.0893552 9.99981 0.243553 -1.25255 -0.081719 6.18412 2.04709 -0.0 0.0 -0.0 7.73043 13.8563 -14.7741 9.01311 33.5903 -57.3413 1.33086 33.3939 -0.399216 16.819 -0.282947 2.12215 -0.547876 -1.27312 3.11128 0.0 0.0 0.0 13.0605 -11.0844 -3.32147 -47.6164 -1.02097 7.0296 36.9129 3.62283 -4.58245 18.3076 -0.0 -0.0 -0.0 0.0 -0.0 -9.88575 19.5428 -7.51285 -3.4029 -0.125075 -0.507184 15.7222 -22.6061 2.26527 30.8349 -0.0 -0.0 0.0 0.0 0.0 
1651.81 746.72 -1212.19 20.1521 56.0485 -14.4752 -3.51106 -0.136634 -0.877812 -3.51063 -0.0805017 -0.884726 -3.50876 0.161025 -0.873667 -3.50982 0.0210309 -0.888132 -3.72115 9.43515 -1.85152 -3.57253 18.6483 -0.462838 -0.0 0.0 -0.0 7.84007 -3.38063 15.2867 -30.7384 -5.41785 67.3452 0.572842 -15.8425 0.0797054 10.0513 0.244239 -1.25909 -0.0758897 6.10713 2.05325 -0.0 0.0 -0.0 7.91146 13.9204 -15.1627 10.3312 32.4565 -57.1452 1.42817 35.2764 -0.454112 16.6957 -0.283154 2.1064 -0.675437 -1.26402 3.96563 0.0 0.0 0.0 14.7599 -11.7672 -4.0305 -48.7492 -1.11499 7.17648 34.6343 3.67472 -4.36526 19.1558 -0.0 -0.0 -0.0 0.0 -0.0 -11.1478 20.2174 -7.97328 -2.55226 -0.0966398 -0.379734 14.8603 -22.397 2.14584 29.6488 -0.0 -0.0 0.0 0.0 0.0 
1630.47 743.21 -1222.5 20.8978 55.5288 -14.8804 -3.60389 -0.189112 -0.888727 -3.60346 -0.132179 -0.898958 -3.60069 0.11654 -0.901119 -3.60182 -0.0272317 -0.908215 -3.44021 8.95454 -2.33716 -3.27899 18.1233 -1.08366 -0.0 0.0 -0.0 7.64712 -2.56439 14.8931 -32.5115 -5.42244 67.9885 0.563047 -15.5848 0.0770526 11.2684 0.258715 -1.41388 0.23877 6.84273 4.41103 -0.0 0.0 -0.0 8.28339 13.6955 -15.9804 10.8566 32.3619 -56.0821 1.49751 36.5665 -0.494794 14.0713 -0.279529 1.77125 -0.809871 -0.521261 5.18798 0.0 0.0 0.0 16.0254 -14.3242 -4.52468 -48.887 -1.12662 7.19422 31.6842 1.75591 -4.07628 19.2957 -0.0 -0.0 -0.0 0.0 -0.0 -12.322 21.3815 -8.71939 -3.73128 -0.135544 -0.556494 15.8975 -22.2458 2.28519 26.576 -0.0 -0.0 0.0 0.0 0.0 
1617.69 739.719 -1229.02 21.0169 56.1946 -14.7819 -3.32524 -0.159915 -1.04605 -3.32463 -0.0930319 -1.05411 -3.32206 0.191243 -1.04078 -3.32357 0.0244808 -1.05792 -4.45846 9.3824 -1.01598 -4.35876 17.975 0.505089 -0.0 0.0 -0.0 7.01144 -2.28812 13.6049 -33.4224 -4.75385 69.1981 0.634592 -17.4511 0.0973968 10.5799 0.25093 -1.32628 0.413645 7.41139 5.78177 -0.0 0.0 -0.0 8.67456 13.794 -16.8275 11.0546 31.7924 -55.2469 1.51168 36.8249 -0.503258 14.4936 -0.281149 1.82516 -0.706308 0.0873632 4.75981 0.0 0.0 0.0 17.4697 -14.8129 -6.02778 -44.1218 -0.749596 6.56542 29.624 3.32123 -3.85249 19.6145 -0.0 -0.0 -0.0 0.0 -0.0 -12.8244 22.2383 -9.00937 -4.02258 -0.144595 -0.600283 15.5982 -21.7388 2.23958 26.5629 -0.0 -0.0 0.0 0.0 0.0 
1596.69 740.079 -1231.72 19.8582 56.3734 -13.4848 -3.33343 -0.134289 -0.916245 -3.33296 -0.0757166 -0.922932 -3.33109 0.173116 -0.909709 -3.33224 0.0272784 -0.925631 -5.75865 8.50273 -0.8459 -5.71521 16.3262 0.711556 -0.0 0.0 -0.0 7.09061 -0.857916 13.7719 -33.1409 -4.9444 69.0664 0.547579 -15.1767 0.0729499 10.9116 0.254812 -1.36847 0.477043 6.98917 6.02809 -0.0 0.0 -0.0 8.93841 13.2297 -17.4272 11.4645 31.8087 -54.3016 1.58933 38.2109 -0.550556 13.295 -0.275516 1.67217 -0.610895 1.83928 4.8796 0.0 0.0 0.0 18.1398 -16.8119 -5.66109 -43.2559 -0.686791 6.44796 29.4221 2.08916 -3.83578 19.212 -0.0 -0.0 -0.0 0.0 -0.0 -13.5967 21.5873 -8.64726 -4.42907 -0.156851 -0.661464 17.6552 -22.1201 2.51923 25.6483 -0.0 -0.0 0.0 0.0 0.0 
1582.0 738.954 -1240.05 20.2227 56.8459 -12.9225 -3.37243 -0.137214 -1.05265 -3.37182 -0.069957 -1.05925 -3.36967 0.215722 -1.03941 -3.37117 0.0488687 -1.06043 -5.4492 7.93042 -1.68598 -5.38892 15.8715 -0.287913 -0.0 0.0 -0.0 6.7945 -1.42595 13.1763 -32.9079 -4.98611 70.1006 0.566802 -15.6837 0.0780645 11.9923 0.265765 -1.50608 0.602415 7.05964 6.87752 -0.0 0.0 -0.0 9.07992 13.0746 -17.7424 10.1696 31.3871 -53.1834 1.7395 40.7479 -0.646058 13.3064 -0.275584 1.67363 -0.690664 1.97598 5.47617 0.0 0.0 0.0 20.1525 -17.2947 -6.5469 -36.7658 -0.273933 5.54018 25.7156 4.20297 -3.41613 14.7247 -0.0 -0.0 -0.0 0.0 -0.0 -14.3303 21.9568 -9.65915 -4.65373 -0.163439 -0.695311 10.76 -21.8167 1.57185 24.8198 -0.0 -0.0 0.0 0.0 0.0 
1570.93 731.376 -1254.65 18.9726 57.1544 -10.8107 -3.14219 -0.0814201 -1.15823 -3.14144 -0.00755919 -1.16106 -3.14037 0.298591 -1.12204 -3.14211 0.117651 -1.15511 -4.9991 7.49522 0.753327 -4.96282 13.2192 2.06397 -0.0 0.0 -0.0 5.75719 2.81525 11.185 -33.6165 -8.63013 67.933 0.643737 -17.687 0.100157 12.7666 0.272016 -1.60477 1.11121 6.59272 10.0503 -0.0 0.0 -0.0 9.83879 13.2486 -19.4032 11.7604 31.2906 -53.4336 1.79692 41.6697 -0.683885 12.3489 -0.26881 1.55152 -1.00862 -0.777944 6.40681 0.0 0.0 0.0 16.0375 -22.4413 -8.98419 -21.971 0.267016 3.34042 17.7659 8.32218 -2.45039 10.6123 -0.0 -0.0 -0.0 0.0 -0.0 -13.974 21.8419 -11.0626 -5.0377 -0.17439 -0.753222 21.5043 -20.4365 2.99732 20.6836 -0.0 -0.0 0.0 0.0 0.0 
1562.65 730.151 -1264.39 18.2633 57.475 -9.07839 -2.94552 -0.0881647 -1.1907 -2.94473 -0.0122245 -1.19389 -2.94354 0.298772 -1.15597 -2.94539 0.112471 -1.18865 -5.42008 8.64395 5.73921 -5.32463 11.6577 7.35499 -0.0 0.0 -0.0 5.36613 2.25567 10.4281 -33.5127 -9.85579 67.7629 0.710599 -19.3926 0.121419 14.0847 0.279587 -1.77296 1.2858 8.41405 11.8973 -0.0 0.0 -0.0 10.1357 13.2572 -20.0595 11.1053 30.0655 -53.7758 1.85088 42.5127 -0.720058 10.5636 -0.250733 1.32421 -1.23957 -2.22769 7.30725 0.0 0.0 0.0 12.0469 -26.7348 -12.1455 -13.791 0.317925 2.08743 14.2413 11.7292 -1.99799 10.4116 -0.0 -0.0 -0.0 0.0 -0.0 -13.2938 22.7181 -12.5582 -5.4775 -0.186456 -0.819637 23.272 -18.7822 3.19705 17.2878 -0.0 -0.0 0.0 0.0 0.0 
1546.35 729.31 -1270.6 17.7691 57.0099 -8.15295 -2.93015 -0.144841 -1.47379 -2.92894 -0.0507766 -1.48002 -2.92615 0.335556 -1.44238 -2.92904 0.103575 -1.47726 -6.20977 8.74641 6.72194 -6.09125 11.2556 8.41479 -0.0 0.0 -0.0 5.10803 4.65846 9.98385 -32.8376 -11.4508 67.2111 0.712513 -19.4409 0.122056 14.8604 0.282233 -1.872 1.42218 10.3403 13.5065 -0.0 0.0 -0.0 10.2927 12.6116 -20.4264 11.1746 29.3947 -54.1073 1.96328 44.1979 -0.797229 9.61967 -0.238315 1.20428 -1.4189 -2.86299 8.21955 0.0 0.0 0.0 9.16851 -30.9617 -14.3833 -8.30953 0.251898 1.24927 11.1009 13.8943 -1.58066 9.45438 -0.0 -0.0 -0.0 0.0 -0.0 -12.9765 23.0835 -12.9224 -7.40062 -0.233212 -1.11105 24.3524 -17.8079 3.31697 13.4756 -0.0 -0.0 0.0 0.0 0.0 
